<svg xmlns="http://www.w3.org/2000/svg" width="450" height="216" viewBox="0 0 450 216">
<rect width="450" height="216" fill="#1c1c1c"/>
<g font-family="Menlo, Consolas, 'DejaVu Sans Mono', monospace" font-size="14">
<rect x="0" y="0" width="450" height="18" fill="#a8a8a8"/>
<text x="0" y="14" textLength="18" lengthAdjust="spacingAndGlyphs" xml:space="preserve" fill="#30302c">┌[</text>
<text x="18" y="14" textLength="9" lengthAdjust="spacingAndGlyphs" xml:space="preserve" fill="#8ae234">■</text>
<text x="27" y="14" textLength="162" lengthAdjust="spacingAndGlyphs" xml:space="preserve" fill="#30302c">]─────────────────</text>
<text x="189" y="14" textLength="72" lengthAdjust="spacingAndGlyphs" xml:space="preserve" fill="#ffffff"> editor </text>
<text x="261" y="14" textLength="189" lengthAdjust="spacingAndGlyphs" xml:space="preserve" fill="#30302c">────────────────────┐</text>
<rect x="0" y="18" width="450" height="18" fill="#a8a8a8"/>
<text x="0" y="32" textLength="450" lengthAdjust="spacingAndGlyphs" xml:space="preserve" fill="#30302c">│                                                │</text>
<rect x="0" y="36" width="450" height="18" fill="#a8a8a8"/>
<text x="0" y="50" textLength="450" lengthAdjust="spacingAndGlyphs" xml:space="preserve" fill="#30302c">│                                                │</text>
<rect x="0" y="54" width="450" height="18" fill="#a8a8a8"/>
<text x="0" y="68" textLength="90" lengthAdjust="spacingAndGlyphs" xml:space="preserve" fill="#30302c">│         </text>
<text x="90" y="68" textLength="270" lengthAdjust="spacingAndGlyphs" xml:space="preserve" fill="#ffffff">╔═════════ Confirm ══════════╗</text>
<text x="360" y="68" textLength="90" lengthAdjust="spacingAndGlyphs" xml:space="preserve" fill="#30302c">         │</text>
<rect x="0" y="72" width="360" height="18" fill="#a8a8a8"/>
<rect x="360" y="72" width="18" height="18" fill="#262626"/>
<rect x="378" y="72" width="72" height="18" fill="#a8a8a8"/>
<text x="0" y="86" textLength="90" lengthAdjust="spacingAndGlyphs" xml:space="preserve" fill="#30302c">│         </text>
<text x="90" y="86" textLength="9" lengthAdjust="spacingAndGlyphs" xml:space="preserve" fill="#ffffff">║</text>
<text x="99" y="86" textLength="252" lengthAdjust="spacingAndGlyphs" xml:space="preserve" fill="#30302c">Save changes before exit?   </text>
<text x="351" y="86" textLength="9" lengthAdjust="spacingAndGlyphs" xml:space="preserve" fill="#ffffff">║</text>
<text x="378" y="86" textLength="72" lengthAdjust="spacingAndGlyphs" xml:space="preserve" fill="#30302c">       │</text>
<rect x="0" y="90" width="360" height="18" fill="#a8a8a8"/>
<rect x="360" y="90" width="18" height="18" fill="#262626"/>
<rect x="378" y="90" width="72" height="18" fill="#a8a8a8"/>
<text x="0" y="104" textLength="90" lengthAdjust="spacingAndGlyphs" xml:space="preserve" fill="#30302c">│         </text>
<text x="90" y="104" textLength="9" lengthAdjust="spacingAndGlyphs" xml:space="preserve" fill="#ffffff">║</text>
<text x="351" y="104" textLength="9" lengthAdjust="spacingAndGlyphs" xml:space="preserve" fill="#ffffff">║</text>
<text x="378" y="104" textLength="72" lengthAdjust="spacingAndGlyphs" xml:space="preserve" fill="#30302c">       │</text>
<rect x="0" y="108" width="360" height="18" fill="#a8a8a8"/>
<rect x="360" y="108" width="18" height="18" fill="#262626"/>
<rect x="378" y="108" width="72" height="18" fill="#a8a8a8"/>
<text x="0" y="122" textLength="90" lengthAdjust="spacingAndGlyphs" xml:space="preserve" fill="#30302c">│         </text>
<text x="90" y="122" textLength="9" lengthAdjust="spacingAndGlyphs" xml:space="preserve" fill="#ffffff">║</text>
<text x="351" y="122" textLength="9" lengthAdjust="spacingAndGlyphs" xml:space="preserve" fill="#ffffff">║</text>
<text x="378" y="122" textLength="72" lengthAdjust="spacingAndGlyphs" xml:space="preserve" fill="#30302c">       │</text>
<rect x="0" y="126" width="360" height="18" fill="#a8a8a8"/>
<rect x="360" y="126" width="18" height="18" fill="#262626"/>
<rect x="378" y="126" width="72" height="18" fill="#a8a8a8"/>
<text x="0" y="140" textLength="90" lengthAdjust="spacingAndGlyphs" xml:space="preserve" fill="#30302c">│         </text>
<text x="90" y="140" textLength="9" lengthAdjust="spacingAndGlyphs" xml:space="preserve" fill="#ffffff">║</text>
<text x="351" y="140" textLength="9" lengthAdjust="spacingAndGlyphs" xml:space="preserve" fill="#ffffff">║</text>
<text x="378" y="140" textLength="72" lengthAdjust="spacingAndGlyphs" xml:space="preserve" fill="#30302c">       │</text>
<rect x="0" y="144" width="108" height="18" fill="#a8a8a8"/>
<rect x="108" y="144" width="63" height="18" fill="#3f7d16"/>
<rect x="171" y="144" width="18" height="18" fill="#a8a8a8"/>
<rect x="189" y="144" width="54" height="18" fill="#3f7d16"/>
<rect x="243" y="144" width="117" height="18" fill="#a8a8a8"/>
<rect x="360" y="144" width="18" height="18" fill="#262626"/>
<rect x="378" y="144" width="72" height="18" fill="#a8a8a8"/>
<text x="0" y="158" textLength="90" lengthAdjust="spacingAndGlyphs" xml:space="preserve" fill="#30302c">│         </text>
<text x="90" y="158" textLength="9" lengthAdjust="spacingAndGlyphs" xml:space="preserve" fill="#ffffff">║</text>
<text x="108" y="158" textLength="18" lengthAdjust="spacingAndGlyphs" xml:space="preserve" fill="#ffffff">&gt; </text>
<text x="126" y="158" textLength="9" lengthAdjust="spacingAndGlyphs" xml:space="preserve" fill="#fce94f">Y</text>
<text x="135" y="158" textLength="36" lengthAdjust="spacingAndGlyphs" xml:space="preserve" fill="#ffffff">es &lt;</text>
<text x="207" y="158" textLength="9" lengthAdjust="spacingAndGlyphs" xml:space="preserve" fill="#fce94f">N</text>
<text x="216" y="158" textLength="135" lengthAdjust="spacingAndGlyphs" xml:space="preserve" fill="#30302c">o              </text>
<text x="351" y="158" textLength="9" lengthAdjust="spacingAndGlyphs" xml:space="preserve" fill="#ffffff">║</text>
<text x="378" y="158" textLength="72" lengthAdjust="spacingAndGlyphs" xml:space="preserve" fill="#30302c">       │</text>
<rect x="0" y="162" width="360" height="18" fill="#a8a8a8"/>
<rect x="360" y="162" width="18" height="18" fill="#262626"/>
<rect x="378" y="162" width="72" height="18" fill="#a8a8a8"/>
<text x="0" y="176" textLength="90" lengthAdjust="spacingAndGlyphs" xml:space="preserve" fill="#30302c">│         </text>
<text x="90" y="176" textLength="270" lengthAdjust="spacingAndGlyphs" xml:space="preserve" fill="#ffffff">╚════════════════════════════◢</text>
<text x="378" y="176" textLength="72" lengthAdjust="spacingAndGlyphs" xml:space="preserve" fill="#30302c">       │</text>
<rect x="0" y="180" width="108" height="18" fill="#a8a8a8"/>
<rect x="108" y="180" width="270" height="18" fill="#262626"/>
<rect x="378" y="180" width="72" height="18" fill="#a8a8a8"/>
<text x="0" y="194" textLength="108" lengthAdjust="spacingAndGlyphs" xml:space="preserve" fill="#30302c">│           </text>
<text x="378" y="194" textLength="72" lengthAdjust="spacingAndGlyphs" xml:space="preserve" fill="#30302c">       │</text>
<rect x="0" y="198" width="450" height="18" fill="#a8a8a8"/>
<text x="0" y="212" textLength="450" lengthAdjust="spacingAndGlyphs" xml:space="preserve" fill="#30302c">└────────────────────────────────────────────────┘</text>
</g>
</svg>
