<svg xmlns="http://www.w3.org/2000/svg" width="630" height="378" viewBox="0 0 630 378">
<rect width="630" height="378" fill="#1c1c1c"/>
<g font-family="Menlo, Consolas, 'DejaVu Sans Mono', monospace" font-size="14">
<rect x="0" y="0" width="630" height="18" fill="#20409a"/>
<text x="0" y="14" textLength="630" lengthAdjust="spacingAndGlyphs" xml:space="preserve" fill="#06989a">▒▒▒▒▒▒▒▒▒▒▒▒▒▒▒▒▒▒▒▒▒▒▒▒▒▒▒▒▒▒▒▒▒▒▒▒▒▒▒▒▒▒▒▒▒▒▒▒▒▒▒▒▒▒▒▒▒▒▒▒▒▒▒▒▒▒▒▒▒▒</text>
<rect x="0" y="18" width="630" height="18" fill="#20409a"/>
<text x="0" y="32" textLength="630" lengthAdjust="spacingAndGlyphs" xml:space="preserve" fill="#06989a">▒▒▒▒▒▒▒▒▒▒▒▒▒▒▒▒▒▒▒▒▒▒▒▒▒▒▒▒▒▒▒▒▒▒▒▒▒▒▒▒▒▒▒▒▒▒▒▒▒▒▒▒▒▒▒▒▒▒▒▒▒▒▒▒▒▒▒▒▒▒</text>
<rect x="0" y="36" width="630" height="18" fill="#20409a"/>
<text x="0" y="50" textLength="27" lengthAdjust="spacingAndGlyphs" xml:space="preserve" fill="#06989a">▒▒▒</text>
<text x="27" y="50" textLength="162" lengthAdjust="spacingAndGlyphs" xml:space="preserve" fill="#d3d7cf">┌[■]──────────────</text>
<text x="189" y="50" textLength="54" lengthAdjust="spacingAndGlyphs" xml:space="preserve" fill="#ffffff"> logs </text>
<text x="243" y="50" textLength="162" lengthAdjust="spacingAndGlyphs" xml:space="preserve" fill="#d3d7cf">──────────────[↑]┐</text>
<text x="405" y="50" textLength="225" lengthAdjust="spacingAndGlyphs" xml:space="preserve" fill="#06989a">▒▒▒▒▒▒▒▒▒▒▒▒▒▒▒▒▒▒▒▒▒▒▒▒▒</text>
<rect x="0" y="54" width="405" height="18" fill="#20409a"/>
<rect x="405" y="54" width="18" height="18" fill="#262626"/>
<rect x="423" y="54" width="207" height="18" fill="#20409a"/>
<text x="0" y="68" textLength="27" lengthAdjust="spacingAndGlyphs" xml:space="preserve" fill="#06989a">▒▒▒</text>
<text x="27" y="68" textLength="378" lengthAdjust="spacingAndGlyphs" xml:space="preserve" fill="#d3d7cf">│[peer]  connected 16Uiu2HAm...          │</text>
<text x="405" y="68" textLength="18" lengthAdjust="spacingAndGlyphs" xml:space="preserve" fill="#7a7a7a">▒▒</text>
<text x="423" y="68" textLength="207" lengthAdjust="spacingAndGlyphs" xml:space="preserve" fill="#06989a">▒▒▒▒▒▒▒▒▒▒▒▒▒▒▒▒▒▒▒▒▒▒▒</text>
<rect x="0" y="72" width="405" height="18" fill="#20409a"/>
<rect x="405" y="72" width="18" height="18" fill="#262626"/>
<rect x="423" y="72" width="207" height="18" fill="#20409a"/>
<text x="0" y="86" textLength="27" lengthAdjust="spacingAndGlyphs" xml:space="preserve" fill="#06989a">▒▒▒</text>
<text x="27" y="86" textLength="378" lengthAdjust="spacingAndGlyphs" xml:space="preserve" fill="#d3d7cf">│[relay] push 1.2 kB msgHash=0xa1f3...   │</text>
<text x="405" y="86" textLength="18" lengthAdjust="spacingAndGlyphs" xml:space="preserve" fill="#7a7a7a">▒▒</text>
<text x="423" y="86" textLength="207" lengthAdjust="spacingAndGlyphs" xml:space="preserve" fill="#06989a">▒▒▒▒▒▒▒▒▒▒▒▒▒▒▒▒▒▒▒▒▒▒▒</text>
<rect x="0" y="90" width="405" height="18" fill="#20409a"/>
<rect x="405" y="90" width="18" height="18" fill="#262626"/>
<rect x="423" y="90" width="207" height="18" fill="#20409a"/>
<text x="0" y="104" textLength="27" lengthAdjust="spacingAndGlyphs" xml:space="preserve" fill="#06989a">▒▒▒</text>
<text x="27" y="104" textLength="378" lengthAdjust="spacingAndGlyphs" xml:space="preserve" fill="#d3d7cf">│[store] query served (12 msgs)          │</text>
<text x="405" y="104" textLength="18" lengthAdjust="spacingAndGlyphs" xml:space="preserve" fill="#7a7a7a">▒▒</text>
<text x="423" y="104" textLength="207" lengthAdjust="spacingAndGlyphs" xml:space="preserve" fill="#06989a">▒▒▒▒▒▒▒▒▒▒▒▒▒▒▒▒▒▒▒▒▒▒▒</text>
<rect x="0" y="108" width="405" height="18" fill="#20409a"/>
<rect x="405" y="108" width="18" height="18" fill="#262626"/>
<rect x="423" y="108" width="207" height="18" fill="#20409a"/>
<text x="0" y="122" textLength="27" lengthAdjust="spacingAndGlyphs" xml:space="preserve" fill="#06989a">▒▒▒</text>
<text x="27" y="122" textLength="378" lengthAdjust="spacingAndGlyphs" xml:space="preserve" fill="#d3d7cf">│[peer]  score +1                        │</text>
<text x="405" y="122" textLength="18" lengthAdjust="spacingAndGlyphs" xml:space="preserve" fill="#7a7a7a">▒▒</text>
<text x="423" y="122" textLength="207" lengthAdjust="spacingAndGlyphs" xml:space="preserve" fill="#06989a">▒▒▒▒▒▒▒▒▒▒▒▒▒▒▒▒▒▒▒▒▒▒▒</text>
<rect x="0" y="126" width="630" height="18" fill="#20409a"/>
<text x="0" y="140" textLength="27" lengthAdjust="spacingAndGlyphs" xml:space="preserve" fill="#06989a">▒▒▒</text>
<text x="27" y="140" textLength="243" lengthAdjust="spacingAndGlyphs" xml:space="preserve" fill="#d3d7cf">│                          </text>
<text x="270" y="140" textLength="324" lengthAdjust="spacingAndGlyphs" xml:space="preserve" fill="#ffffff">╔[■]═════════ settings ═════════[↑]╗</text>
<text x="594" y="140" textLength="36" lengthAdjust="spacingAndGlyphs" xml:space="preserve" fill="#06989a">▒▒▒▒</text>
<rect x="0" y="144" width="594" height="18" fill="#20409a"/>
<rect x="594" y="144" width="18" height="18" fill="#262626"/>
<rect x="612" y="144" width="18" height="18" fill="#20409a"/>
<text x="0" y="158" textLength="27" lengthAdjust="spacingAndGlyphs" xml:space="preserve" fill="#06989a">▒▒▒</text>
<text x="27" y="158" textLength="243" lengthAdjust="spacingAndGlyphs" xml:space="preserve" fill="#d3d7cf">│                          </text>
<text x="270" y="158" textLength="9" lengthAdjust="spacingAndGlyphs" xml:space="preserve" fill="#ffffff">║</text>
<text x="279" y="158" textLength="306" lengthAdjust="spacingAndGlyphs" xml:space="preserve" fill="#d3d7cf">┌─────────── endpoint ───────────┐</text>
<text x="585" y="158" textLength="9" lengthAdjust="spacingAndGlyphs" xml:space="preserve" fill="#ffffff">║</text>
<text x="594" y="158" textLength="18" lengthAdjust="spacingAndGlyphs" xml:space="preserve" fill="#7a7a7a">▒▒</text>
<text x="612" y="158" textLength="18" lengthAdjust="spacingAndGlyphs" xml:space="preserve" fill="#06989a">▒▒</text>
<rect x="0" y="162" width="594" height="18" fill="#20409a"/>
<rect x="594" y="162" width="18" height="18" fill="#262626"/>
<rect x="612" y="162" width="18" height="18" fill="#20409a"/>
<text x="0" y="176" textLength="27" lengthAdjust="spacingAndGlyphs" xml:space="preserve" fill="#06989a">▒▒▒</text>
<text x="27" y="176" textLength="243" lengthAdjust="spacingAndGlyphs" xml:space="preserve" fill="#d3d7cf">│                          </text>
<text x="270" y="176" textLength="9" lengthAdjust="spacingAndGlyphs" xml:space="preserve" fill="#ffffff">║</text>
<text x="279" y="176" textLength="9" lengthAdjust="spacingAndGlyphs" xml:space="preserve" fill="#d3d7cf">│</text>
<text x="288" y="176" textLength="288" lengthAdjust="spacingAndGlyphs" xml:space="preserve" fill="#c4a000">wss://node.example:8000         </text>
<text x="576" y="176" textLength="9" lengthAdjust="spacingAndGlyphs" xml:space="preserve" fill="#d3d7cf">│</text>
<text x="585" y="176" textLength="9" lengthAdjust="spacingAndGlyphs" xml:space="preserve" fill="#ffffff">║</text>
<text x="594" y="176" textLength="18" lengthAdjust="spacingAndGlyphs" xml:space="preserve" fill="#7a7a7a">▒▒</text>
<text x="612" y="176" textLength="18" lengthAdjust="spacingAndGlyphs" xml:space="preserve" fill="#06989a">▒▒</text>
<rect x="0" y="180" width="594" height="18" fill="#20409a"/>
<rect x="594" y="180" width="18" height="18" fill="#262626"/>
<rect x="612" y="180" width="18" height="18" fill="#20409a"/>
<text x="0" y="194" textLength="27" lengthAdjust="spacingAndGlyphs" xml:space="preserve" fill="#06989a">▒▒▒</text>
<text x="27" y="194" textLength="243" lengthAdjust="spacingAndGlyphs" xml:space="preserve" fill="#d3d7cf">│                          </text>
<text x="270" y="194" textLength="9" lengthAdjust="spacingAndGlyphs" xml:space="preserve" fill="#ffffff">║</text>
<text x="279" y="194" textLength="306" lengthAdjust="spacingAndGlyphs" xml:space="preserve" fill="#d3d7cf">└────────────────────────────────┘</text>
<text x="585" y="194" textLength="9" lengthAdjust="spacingAndGlyphs" xml:space="preserve" fill="#ffffff">║</text>
<text x="594" y="194" textLength="18" lengthAdjust="spacingAndGlyphs" xml:space="preserve" fill="#7a7a7a">▒▒</text>
<text x="612" y="194" textLength="18" lengthAdjust="spacingAndGlyphs" xml:space="preserve" fill="#06989a">▒▒</text>
<rect x="0" y="198" width="594" height="18" fill="#20409a"/>
<rect x="594" y="198" width="18" height="18" fill="#262626"/>
<rect x="612" y="198" width="18" height="18" fill="#20409a"/>
<text x="0" y="212" textLength="27" lengthAdjust="spacingAndGlyphs" xml:space="preserve" fill="#06989a">▒▒▒</text>
<text x="27" y="212" textLength="243" lengthAdjust="spacingAndGlyphs" xml:space="preserve" fill="#d3d7cf">│                          </text>
<text x="270" y="212" textLength="9" lengthAdjust="spacingAndGlyphs" xml:space="preserve" fill="#ffffff">║</text>
<text x="585" y="212" textLength="9" lengthAdjust="spacingAndGlyphs" xml:space="preserve" fill="#ffffff">║</text>
<text x="594" y="212" textLength="18" lengthAdjust="spacingAndGlyphs" xml:space="preserve" fill="#7a7a7a">▒▒</text>
<text x="612" y="212" textLength="18" lengthAdjust="spacingAndGlyphs" xml:space="preserve" fill="#06989a">▒▒</text>
<rect x="0" y="216" width="594" height="18" fill="#20409a"/>
<rect x="594" y="216" width="18" height="18" fill="#262626"/>
<rect x="612" y="216" width="18" height="18" fill="#20409a"/>
<text x="0" y="230" textLength="27" lengthAdjust="spacingAndGlyphs" xml:space="preserve" fill="#06989a">▒▒▒</text>
<text x="27" y="230" textLength="243" lengthAdjust="spacingAndGlyphs" xml:space="preserve" fill="#d3d7cf">│                          </text>
<text x="270" y="230" textLength="9" lengthAdjust="spacingAndGlyphs" xml:space="preserve" fill="#ffffff">║</text>
<text x="279" y="230" textLength="90" lengthAdjust="spacingAndGlyphs" xml:space="preserve" fill="#d3d7cf">┌─────────</text>
<text x="369" y="230" textLength="126" lengthAdjust="spacingAndGlyphs" xml:space="preserve" fill="#ffffff"> memory model </text>
<text x="495" y="230" textLength="90" lengthAdjust="spacingAndGlyphs" xml:space="preserve" fill="#d3d7cf">─────────┐</text>
<text x="585" y="230" textLength="9" lengthAdjust="spacingAndGlyphs" xml:space="preserve" fill="#ffffff">║</text>
<text x="594" y="230" textLength="18" lengthAdjust="spacingAndGlyphs" xml:space="preserve" fill="#7a7a7a">▒▒</text>
<text x="612" y="230" textLength="18" lengthAdjust="spacingAndGlyphs" xml:space="preserve" fill="#06989a">▒▒</text>
<rect x="0" y="234" width="594" height="18" fill="#20409a"/>
<rect x="594" y="234" width="18" height="18" fill="#262626"/>
<rect x="612" y="234" width="18" height="18" fill="#20409a"/>
<text x="0" y="248" textLength="27" lengthAdjust="spacingAndGlyphs" xml:space="preserve" fill="#06989a">▒▒▒</text>
<text x="27" y="248" textLength="243" lengthAdjust="spacingAndGlyphs" xml:space="preserve" fill="#d3d7cf">│                          </text>
<text x="270" y="248" textLength="9" lengthAdjust="spacingAndGlyphs" xml:space="preserve" fill="#ffffff">║</text>
<text x="279" y="248" textLength="306" lengthAdjust="spacingAndGlyphs" xml:space="preserve" fill="#d3d7cf">│( ) refc                        │</text>
<text x="585" y="248" textLength="9" lengthAdjust="spacingAndGlyphs" xml:space="preserve" fill="#ffffff">║</text>
<text x="594" y="248" textLength="18" lengthAdjust="spacingAndGlyphs" xml:space="preserve" fill="#7a7a7a">▒▒</text>
<text x="612" y="248" textLength="18" lengthAdjust="spacingAndGlyphs" xml:space="preserve" fill="#06989a">▒▒</text>
<rect x="0" y="252" width="594" height="18" fill="#20409a"/>
<rect x="594" y="252" width="18" height="18" fill="#262626"/>
<rect x="612" y="252" width="18" height="18" fill="#20409a"/>
<text x="0" y="266" textLength="27" lengthAdjust="spacingAndGlyphs" xml:space="preserve" fill="#06989a">▒▒▒</text>
<text x="27" y="266" textLength="243" lengthAdjust="spacingAndGlyphs" xml:space="preserve" fill="#d3d7cf">└──────────────────────────</text>
<text x="270" y="266" textLength="9" lengthAdjust="spacingAndGlyphs" xml:space="preserve" fill="#ffffff">║</text>
<text x="279" y="266" textLength="306" lengthAdjust="spacingAndGlyphs" xml:space="preserve" fill="#d3d7cf">│(•) orc                         │</text>
<text x="585" y="266" textLength="9" lengthAdjust="spacingAndGlyphs" xml:space="preserve" fill="#ffffff">║</text>
<text x="594" y="266" textLength="18" lengthAdjust="spacingAndGlyphs" xml:space="preserve" fill="#7a7a7a">▒▒</text>
<text x="612" y="266" textLength="18" lengthAdjust="spacingAndGlyphs" xml:space="preserve" fill="#06989a">▒▒</text>
<rect x="0" y="270" width="45" height="18" fill="#20409a"/>
<rect x="45" y="270" width="225" height="18" fill="#262626"/>
<rect x="270" y="270" width="324" height="18" fill="#20409a"/>
<rect x="594" y="270" width="18" height="18" fill="#262626"/>
<rect x="612" y="270" width="18" height="18" fill="#20409a"/>
<text x="0" y="284" textLength="45" lengthAdjust="spacingAndGlyphs" xml:space="preserve" fill="#06989a">▒▒▒▒▒</text>
<text x="45" y="284" textLength="225" lengthAdjust="spacingAndGlyphs" xml:space="preserve" fill="#7a7a7a">▒▒▒▒▒▒▒▒▒▒▒▒▒▒▒▒▒▒▒▒▒▒▒▒▒</text>
<text x="270" y="284" textLength="9" lengthAdjust="spacingAndGlyphs" xml:space="preserve" fill="#ffffff">║</text>
<text x="279" y="284" textLength="306" lengthAdjust="spacingAndGlyphs" xml:space="preserve" fill="#d3d7cf">│( ) arc                         │</text>
<text x="585" y="284" textLength="9" lengthAdjust="spacingAndGlyphs" xml:space="preserve" fill="#ffffff">║</text>
<text x="594" y="284" textLength="18" lengthAdjust="spacingAndGlyphs" xml:space="preserve" fill="#7a7a7a">▒▒</text>
<text x="612" y="284" textLength="18" lengthAdjust="spacingAndGlyphs" xml:space="preserve" fill="#06989a">▒▒</text>
<rect x="0" y="288" width="594" height="18" fill="#20409a"/>
<rect x="594" y="288" width="18" height="18" fill="#262626"/>
<rect x="612" y="288" width="18" height="18" fill="#20409a"/>
<text x="0" y="302" textLength="270" lengthAdjust="spacingAndGlyphs" xml:space="preserve" fill="#06989a">▒▒▒▒▒▒▒▒▒▒▒▒▒▒▒▒▒▒▒▒▒▒▒▒▒▒▒▒▒▒</text>
<text x="270" y="302" textLength="9" lengthAdjust="spacingAndGlyphs" xml:space="preserve" fill="#ffffff">║</text>
<text x="279" y="302" textLength="306" lengthAdjust="spacingAndGlyphs" xml:space="preserve" fill="#d3d7cf">└────────────────────────────────┘</text>
<text x="585" y="302" textLength="9" lengthAdjust="spacingAndGlyphs" xml:space="preserve" fill="#ffffff">║</text>
<text x="594" y="302" textLength="18" lengthAdjust="spacingAndGlyphs" xml:space="preserve" fill="#7a7a7a">▒▒</text>
<text x="612" y="302" textLength="18" lengthAdjust="spacingAndGlyphs" xml:space="preserve" fill="#06989a">▒▒</text>
<rect x="0" y="306" width="594" height="18" fill="#20409a"/>
<rect x="594" y="306" width="18" height="18" fill="#262626"/>
<rect x="612" y="306" width="18" height="18" fill="#20409a"/>
<text x="0" y="320" textLength="270" lengthAdjust="spacingAndGlyphs" xml:space="preserve" fill="#06989a">▒▒▒▒▒▒▒▒▒▒▒▒▒▒▒▒▒▒▒▒▒▒▒▒▒▒▒▒▒▒</text>
<text x="270" y="320" textLength="9" lengthAdjust="spacingAndGlyphs" xml:space="preserve" fill="#ffffff">║</text>
<text x="585" y="320" textLength="9" lengthAdjust="spacingAndGlyphs" xml:space="preserve" fill="#ffffff">║</text>
<text x="594" y="320" textLength="18" lengthAdjust="spacingAndGlyphs" xml:space="preserve" fill="#7a7a7a">▒▒</text>
<text x="612" y="320" textLength="18" lengthAdjust="spacingAndGlyphs" xml:space="preserve" fill="#06989a">▒▒</text>
<rect x="0" y="324" width="279" height="18" fill="#20409a"/>
<rect x="279" y="324" width="81" height="18" fill="#178b8d"/>
<rect x="360" y="324" width="234" height="18" fill="#20409a"/>
<rect x="594" y="324" width="18" height="18" fill="#262626"/>
<rect x="612" y="324" width="18" height="18" fill="#20409a"/>
<text x="0" y="338" textLength="270" lengthAdjust="spacingAndGlyphs" xml:space="preserve" fill="#06989a">▒▒▒▒▒▒▒▒▒▒▒▒▒▒▒▒▒▒▒▒▒▒▒▒▒▒▒▒▒▒</text>
<text x="270" y="338" textLength="90" lengthAdjust="spacingAndGlyphs" xml:space="preserve" fill="#ffffff">║▶ Apply ◀</text>
<text x="585" y="338" textLength="9" lengthAdjust="spacingAndGlyphs" xml:space="preserve" fill="#ffffff">║</text>
<text x="594" y="338" textLength="18" lengthAdjust="spacingAndGlyphs" xml:space="preserve" fill="#7a7a7a">▒▒</text>
<text x="612" y="338" textLength="18" lengthAdjust="spacingAndGlyphs" xml:space="preserve" fill="#06989a">▒▒</text>
<rect x="0" y="342" width="594" height="18" fill="#20409a"/>
<rect x="594" y="342" width="18" height="18" fill="#262626"/>
<rect x="612" y="342" width="18" height="18" fill="#20409a"/>
<text x="0" y="356" textLength="270" lengthAdjust="spacingAndGlyphs" xml:space="preserve" fill="#06989a">▒▒▒▒▒▒▒▒▒▒▒▒▒▒▒▒▒▒▒▒▒▒▒▒▒▒▒▒▒▒</text>
<text x="270" y="356" textLength="324" lengthAdjust="spacingAndGlyphs" xml:space="preserve" fill="#ffffff">╚══════════════════════════════════◢</text>
<text x="594" y="356" textLength="18" lengthAdjust="spacingAndGlyphs" xml:space="preserve" fill="#7a7a7a">▒▒</text>
<text x="612" y="356" textLength="18" lengthAdjust="spacingAndGlyphs" xml:space="preserve" fill="#06989a">▒▒</text>
<rect x="0" y="360" width="288" height="18" fill="#20409a"/>
<rect x="288" y="360" width="324" height="18" fill="#262626"/>
<rect x="612" y="360" width="18" height="18" fill="#20409a"/>
<text x="0" y="374" textLength="288" lengthAdjust="spacingAndGlyphs" xml:space="preserve" fill="#06989a">▒▒▒▒▒▒▒▒▒▒▒▒▒▒▒▒▒▒▒▒▒▒▒▒▒▒▒▒▒▒▒▒</text>
<text x="288" y="374" textLength="324" lengthAdjust="spacingAndGlyphs" xml:space="preserve" fill="#7a7a7a">▒▒▒▒▒▒▒▒▒▒▒▒▒▒▒▒▒▒▒▒▒▒▒▒▒▒▒▒▒▒▒▒▒▒▒▒</text>
<text x="612" y="374" textLength="18" lengthAdjust="spacingAndGlyphs" xml:space="preserve" fill="#06989a">▒▒</text>
</g>
</svg>
